<svg width="16" height="20" viewBox="0 0 16 20" fill="none" xmlns="http://www.w3.org/2000/svg">
<path fill-rule="evenodd" clip-rule="evenodd" d="M14.3007 11.6471C14.1815 11.85 14.0547 12.0455 13.9206 12.2409C13.5484 12.7936 13.1221 13.3155 12.6963 13.8366C12.4909 14.088 12.2857 14.3392 12.0868 14.5936L9.06775 18.4721L8.1434 19.6597C7.77814 20.1257 7.06997 20.1107 6.72707 19.6296L1.76243 12.6768C1.56116 12.4363 1.38226 12.1732 1.21081 11.9026L1.16608 11.835C0.264098 10.3693 -0.183166 8.58787 0.0702841 6.6862C0.532457 3.19854 3.38749 0.39489 6.8687 0.0416144C11.4681 -0.431925 15.3518 3.19854 15.3518 7.73851C15.3518 7.97904 15.3444 8.21205 15.322 8.44506C15.2251 9.57254 14.8673 10.6699 14.3007 11.6471ZM11 7.5C11 9.433 9.433 11 7.5 11C5.567 11 4 9.433 4 7.5C4 5.567 5.567 4 7.5 4C9.433 4 11 5.567 11 7.5Z" fill="#CBA8A3"/>
</svg>
