<svg width="12" height="11" viewBox="0 0 12 11" fill="none" xmlns="http://www.w3.org/2000/svg">
<path d="M3.84753 7.70117L10.1973 0.820699C10.3946 0.606899 10.6457 0.5 10.9507 0.5C11.2556 0.5 11.5067 0.606899 11.704 0.820699C11.9013 1.0345 12 1.30661 12 1.63703C12 1.96744 11.9013 2.23955 11.704 2.45335L4.6009 10.1501C4.38565 10.3834 4.13453 10.5 3.84753 10.5C3.56054 10.5 3.30942 10.3834 3.09417 10.1501L0.295964 7.11808C0.0986543 6.90428 0 6.63217 0 6.30175C0 5.97133 0.0986543 5.69922 0.295964 5.48542C0.493273 5.27162 0.744394 5.16472 1.04933 5.16472C1.35426 5.16472 1.60538 5.27162 1.80269 5.48542L3.84753 7.70117Z" fill="#FBFFFF"/>
</svg>
