<svg width="20" height="20" viewBox="0 0 20 20" fill="none" xmlns="http://www.w3.org/2000/svg">
<path fill-rule="evenodd" clip-rule="evenodd" d="M4.68632 3.68626C3.30382 4.3182 2.29102 5.8213 2.29102 7.61369C2.29102 9.44485 3.04037 10.8563 4.11459 12.0659C4.99995 13.0628 6.07172 13.8891 7.11696 14.6949C7.36522 14.8863 7.61197 15.0766 7.85439 15.2677C8.29275 15.6133 8.68377 15.9165 9.06068 16.1368C9.43777 16.3572 9.74135 16.4578 9.99935 16.4578C10.2573 16.4578 10.5609 16.3572 10.938 16.1368C11.3149 15.9165 11.7059 15.6133 12.1443 15.2677C12.3868 15.0766 12.6335 14.8863 12.8818 14.6949C13.927 13.8891 14.9988 13.0628 15.8841 12.0659C16.9583 10.8563 17.7077 9.44485 17.7077 7.61369C17.7077 5.8213 16.6948 4.3182 15.3123 3.68626C13.9693 3.07234 12.1646 3.23492 10.4497 5.01672C10.3318 5.13913 10.1693 5.2083 9.99935 5.2083C9.82943 5.2083 9.66685 5.13913 9.54902 5.01672C7.83407 3.23492 6.02941 3.07234 4.68632 3.68626ZM9.99935 3.71512C8.07264 1.9913 5.91515 1.75016 4.16665 2.5494C2.31994 3.39354 1.04102 5.35363 1.04102 7.61369C1.04102 9.83493 1.96643 11.5295 3.17995 12.8959C4.15174 13.9902 5.3412 14.9061 6.39171 15.7149C6.62984 15.8983 6.86083 16.0762 7.08053 16.2493C7.50739 16.5858 7.96563 16.9447 8.43002 17.216C8.89427 17.4873 9.42402 17.7078 9.99935 17.7078C10.5747 17.7078 11.1044 17.4873 11.5687 17.216C12.0331 16.9447 12.4913 16.5858 12.9182 16.2493C13.1378 16.0762 13.3688 15.8983 13.607 15.7149C14.6575 14.9061 15.8469 13.9902 16.8188 12.8959C18.0323 11.5295 18.9577 9.83493 18.9577 7.61369C18.9577 5.35363 17.6788 3.39354 15.832 2.5494C14.0835 1.75016 11.9261 1.9913 9.99935 3.71512Z" fill="black"/>
</svg>
