<svg width="90" height="90" viewBox="0 0 90 90" fill="none" xmlns="http://www.w3.org/2000/svg">
<g clip-path="url(#clip0_3120_8)">
<path d="M42.1882 54.8689L33.0363 45.717L34.4678 44.2854L42.1882 52.0057L58.346 35.8451L59.7803 37.2767L42.1882 54.8689ZM65.5713 79.7623H87.1882C87.5228 79.7623 87.8378 79.5936 88.0263 79.3179C88.2147 79.0367 88.2541 78.6851 88.1275 78.3729L85.4669 71.7186L88.1275 65.0642C88.2541 64.752 88.2147 64.4004 88.0263 64.1192C87.8378 63.8407 87.5228 63.6748 87.1882 63.6748H80.8178C83.8132 57.9401 85.3882 51.5164 85.3882 44.9998C85.3882 22.7304 67.27 4.6123 45.0007 4.6123C22.7313 4.6123 4.61315 22.7304 4.61315 44.9998C4.61315 51.5164 6.18815 57.9401 9.18347 63.6748H2.81315C2.47565 63.6748 2.16347 63.8436 1.97503 64.1192C1.78659 64.4004 1.75003 64.752 1.87378 65.0642L4.5344 71.7186L1.87097 78.3729C1.74722 78.6851 1.78378 79.0367 1.97222 79.3179C2.16347 79.5964 2.47565 79.7623 2.81315 79.7623H24.43C30.64 83.4439 37.7444 85.3873 45.0007 85.3873C52.2569 85.3873 59.3613 83.4439 65.5713 79.7623ZM61.2428 79.7623C51.1235 84.4873 38.875 84.4873 28.7585 79.7623H61.2428ZM6.56503 72.0954C6.66065 71.8536 6.66065 71.5836 6.56503 71.3417L4.3094 65.6998H85.6947L83.4363 71.3417C83.3407 71.5836 83.3407 71.8536 83.4363 72.0954L85.6947 77.7373H4.3094L6.56503 72.0954ZM76.9507 44.9998C76.9507 27.3823 62.6153 13.0498 45.0007 13.0498C27.3832 13.0498 13.0507 27.3823 13.0507 44.9998C13.0507 51.7076 15.1769 58.2607 19.075 63.6748H11.4813C8.31159 57.9936 6.63815 51.5473 6.63815 44.9998C6.63815 23.847 23.8478 6.6373 45.0007 6.6373C66.1535 6.6373 83.3632 23.847 83.3632 44.9998C83.3632 51.5473 81.6897 57.9936 78.5172 63.6748H70.9263C74.8244 58.2636 76.9507 51.7076 76.9507 44.9998ZM15.0757 44.9998C15.0757 28.4989 28.4997 15.0748 45.0007 15.0748C61.5016 15.0748 74.9257 28.4989 74.9257 44.9998C74.9257 51.7807 72.6082 58.3929 68.3866 63.6748H21.6175C17.396 58.3929 15.0757 51.7779 15.0757 44.9998Z" fill="black"/>
</g>
<defs>
<clipPath id="clip0_3120_8">
<rect width="90" height="90" fill="white"/>
</clipPath>
</defs>
</svg>
