<svg width="90" height="90" viewBox="0 0 90 90" fill="none" xmlns="http://www.w3.org/2000/svg">
<g clip-path="url(#clip0_3120_15)">
<path d="M82.5758 84.3748H80.5508V59.0623C80.5508 58.6376 80.8208 58.2551 81.2202 58.1089C84.4152 56.9557 86.1758 54.4948 86.1758 51.1845V36.5623C86.1758 30.9176 81.583 26.3248 75.9383 26.3248C70.2936 26.3248 65.7008 30.9176 65.7008 36.5623V51.2154C65.7008 54.5061 67.4614 56.9557 70.6564 58.1089C71.0586 58.2551 71.3258 58.6376 71.3258 59.0623V84.3748H69.3008V59.7486C65.7177 58.1989 63.6758 55.1248 63.6758 51.2154V36.5623C63.6758 29.8011 69.177 24.2998 75.9383 24.2998C82.6995 24.2998 88.2008 29.8011 88.2008 36.5623V51.1845C88.2008 55.1107 86.1589 58.1989 82.5758 59.7486V84.3748ZM20.7008 84.3748H18.6758V59.0623C18.6758 58.6376 18.943 58.2551 19.3423 58.1089C22.5402 56.9557 24.3008 54.4948 24.3008 51.1845V36.5623C24.3008 30.9176 19.708 26.3248 14.0633 26.3248C8.41859 26.3248 3.82578 30.9176 3.82578 36.5623V51.2154C3.82578 54.5061 5.58641 56.9557 8.78422 58.1089C9.18359 58.2551 9.45078 58.6376 9.45078 59.0623V84.3748H7.42578V59.7486C3.83984 58.1989 1.80078 55.1248 1.80078 51.2154V36.5623C1.80078 29.8011 7.30203 24.2998 14.0633 24.2998C20.8245 24.2998 26.3258 29.8011 26.3258 36.5623V51.1845C26.3258 55.1107 24.2867 58.1989 20.7008 59.7486V84.3748ZM75.9383 20.6998C71.503 20.6998 67.8945 17.0914 67.8945 12.6561C67.8945 8.22074 71.503 4.6123 75.9383 4.6123C80.3736 4.6123 83.982 8.22074 83.982 12.6561C83.982 17.0914 80.3736 20.6998 75.9383 20.6998ZM75.9383 6.6373C72.6195 6.6373 69.9195 9.33731 69.9195 12.6561C69.9195 15.9748 72.6195 18.6748 75.9383 18.6748C79.257 18.6748 81.957 15.9748 81.957 12.6561C81.957 9.33731 79.257 6.6373 75.9383 6.6373ZM14.0633 20.6998C9.62797 20.6998 6.01953 17.0914 6.01953 12.6561C6.01953 8.22074 9.62797 4.6123 14.0633 4.6123C18.4986 4.6123 22.107 8.22074 22.107 12.6561C22.107 17.0914 18.4986 20.6998 14.0633 20.6998ZM14.0633 6.6373C10.7445 6.6373 8.04453 9.33731 8.04453 12.6561C8.04453 15.9748 10.7445 18.6748 14.0633 18.6748C17.382 18.6748 20.082 15.9748 20.082 12.6561C20.082 9.33731 17.382 6.6373 14.0633 6.6373ZM54.1555 38.6604L52.7211 40.092L56.6192 43.9901H33.3823L37.2777 40.092L35.8461 38.6604L29.5067 44.9998L35.8489 51.342L37.2805 49.9076L33.3852 46.0123H56.622L52.7239 49.9076L54.1583 51.342L60.4948 44.9998L54.1555 38.6604Z" fill="black"/>
</g>
<defs>
<clipPath id="clip0_3120_15">
<rect width="90" height="90" fill="white"/>
</clipPath>
</defs>
</svg>
