<svg width="90" height="90" viewBox="0 0 90 90" fill="none" xmlns="http://www.w3.org/2000/svg">
<g clip-path="url(#clip0_3119_2)">
<path d="M87.1875 88.1998H2.8125V86.1748H87.1875V88.1998ZM87.1875 76.9498H45V74.9248H87.1875V76.9498ZM36.5625 65.6998H2.8125V63.6748H36.5625V65.6998ZM61.0819 57.2539C57.9122 57.2539 54.7425 56.0614 52.3322 53.6736L45 46.4229L37.6734 53.6736C32.8472 58.4464 24.9947 58.4464 20.1684 53.6736C17.8256 51.3589 16.5375 48.2792 16.5375 45.0026C16.5375 41.7232 17.8256 38.6407 20.1684 36.3232C24.9975 31.5504 32.85 31.5504 37.6763 36.3232L45 43.5739L52.3294 36.3232C57.1528 31.5476 65.0081 31.5476 69.8316 36.3232C72.1744 38.6407 73.4625 41.7232 73.4625 45.0026C73.4597 48.2792 72.1716 51.3561 69.8316 53.6736C67.4212 56.0614 64.2488 57.2539 61.0819 57.2539ZM46.44 44.9998L53.7525 52.2336C57.7912 56.2329 64.3641 56.2329 68.4084 52.2336C70.3603 50.3014 71.4347 47.7336 71.4347 45.0026C71.4375 42.2689 70.3603 39.6982 68.4084 37.7632C64.3641 33.7639 57.7941 33.7639 53.7525 37.7632L46.44 44.9998ZM28.9209 34.7651C26.2659 34.7651 23.6109 35.7636 21.5916 37.7632C19.6369 39.6982 18.5625 42.2689 18.5625 45.0026C18.5625 47.7336 19.6369 50.3042 21.5916 52.2336C25.6331 56.2301 32.2087 56.2357 36.2475 52.2336L43.5628 44.9998L36.2475 37.7632C34.2281 35.7664 31.5759 34.7651 28.9209 34.7651ZM87.1875 26.3248H45V24.2998H87.1875V26.3248ZM45 15.0748H2.8125V13.0498H45V15.0748ZM87.1875 3.8248H2.8125V1.7998H87.1875V3.8248ZM87.1875 14.0623C87.1875 14.8386 86.5575 15.4686 85.7812 15.4686C85.005 15.4686 84.375 14.8386 84.375 14.0623C84.375 13.2861 85.005 12.6561 85.7812 12.6561C86.5575 12.6561 87.1875 13.2861 87.1875 14.0623ZM80.1562 12.6561C79.38 12.6561 78.75 13.2861 78.75 14.0623C78.75 14.8386 79.38 15.4686 80.1562 15.4686C80.9325 15.4686 81.5625 14.8386 81.5625 14.0623C81.5625 13.2861 80.9325 12.6561 80.1562 12.6561ZM9.84375 54.8436C9.0675 54.8436 8.4375 55.4736 8.4375 56.2498C8.4375 57.0261 9.0675 57.6561 9.84375 57.6561C10.62 57.6561 11.25 57.0261 11.25 56.2498C11.25 55.4736 10.62 54.8436 9.84375 54.8436ZM43.5938 63.2811C42.8175 63.2811 42.1875 63.9111 42.1875 64.6873C42.1875 65.4636 42.8175 66.0936 43.5938 66.0936C44.37 66.0936 45 65.4636 45 64.6873C45 63.9111 44.37 63.2811 43.5938 63.2811ZM4.21875 74.5311C3.4425 74.5311 2.8125 75.1611 2.8125 75.9373C2.8125 76.7136 3.4425 77.3436 4.21875 77.3436C4.995 77.3436 5.625 76.7136 5.625 75.9373C5.625 75.1611 4.995 74.5311 4.21875 74.5311ZM85.7812 63.2811C85.005 63.2811 84.375 63.9111 84.375 64.6873C84.375 65.4636 85.005 66.0936 85.7812 66.0936C86.5575 66.0936 87.1875 65.4636 87.1875 64.6873C87.1875 63.9111 86.5575 63.2811 85.7812 63.2811ZM4.21875 54.8436C3.4425 54.8436 2.8125 55.4736 2.8125 56.2498C2.8125 57.0261 3.4425 57.6561 4.21875 57.6561C4.995 57.6561 5.625 57.0261 5.625 56.2498C5.625 55.4736 4.995 54.8436 4.21875 54.8436ZM4.21875 23.9061C3.4425 23.9061 2.8125 24.5361 2.8125 25.3123C2.8125 26.0886 3.4425 26.7186 4.21875 26.7186C4.995 26.7186 5.625 26.0886 5.625 25.3123C5.625 24.5361 4.995 23.9061 4.21875 23.9061ZM85.7812 32.3436C85.005 32.3436 84.375 32.9736 84.375 33.7498C84.375 34.5261 85.005 35.1561 85.7812 35.1561C86.5575 35.1561 87.1875 34.5261 87.1875 33.7498C87.1875 32.9736 86.5575 32.3436 85.7812 32.3436Z" fill="black"/>
</g>
<defs>
<clipPath id="clip0_3119_2">
<rect width="90" height="90" fill="white"/>
</clipPath>
</defs>
</svg>
