<svg width="26" height="20" viewBox="0 0 26 20" fill="none" xmlns="http://www.w3.org/2000/svg">
<path fill-rule="evenodd" clip-rule="evenodd" d="M-1.63918e-08 1C-7.33885e-09 0.447715 0.447715 -9.03243e-09 1 -2.01745e-08L25 -5.04362e-07C25.5523 -5.15504e-07 26 0.447715 26 0.999999C26 1.55228 25.5523 2 25 2L1 2C0.447715 2 -2.54447e-08 1.55228 -1.63918e-08 1Z" fill="#58A98A"/>
<path fill-rule="evenodd" clip-rule="evenodd" d="M-1.63918e-08 10C-7.33885e-09 9.44772 0.447715 9 1 9L25 9C25.5523 9 26 9.44771 26 10C26 10.5523 25.5523 11 25 11L1 11C0.447715 11 -2.54447e-08 10.5523 -1.63918e-08 10Z" fill="#58A98A"/>
<path fill-rule="evenodd" clip-rule="evenodd" d="M-1.63918e-08 19C-7.33885e-09 18.4477 0.447715 18 1 18L25 18C25.5523 18 26 18.4477 26 19C26 19.5523 25.5523 20 25 20L1 20C0.447715 20 -2.54447e-08 19.5523 -1.63918e-08 19Z" fill="#58A98A"/>
</svg>
