<svg width="72" height="72" viewBox="0 0 72 72" fill="none" xmlns="http://www.w3.org/2000/svg">
<path d="M46.3109 28.6324L38.9452 35.998L46.3109 43.3637C46.7016 43.7544 46.9211 44.2843 46.9211 44.8369C46.9211 45.3894 46.7016 45.9193 46.3109 46.31C45.9202 46.7007 45.3903 46.9202 44.8378 46.9202C44.2852 46.9202 43.7553 46.7007 43.3646 46.31L35.9989 38.9443L28.6333 46.31C28.2426 46.7007 27.7126 46.9202 27.1601 46.9202C26.6076 46.9202 26.0777 46.7007 25.687 46.31C25.2963 45.9193 25.0768 45.3894 25.0768 44.8369C25.0768 44.2843 25.2963 43.7544 25.687 43.3637L33.0527 35.998L25.687 28.6324C25.2963 28.2417 25.0768 27.7117 25.0768 27.1592C25.0768 26.6067 25.2963 26.0768 25.687 25.6861C26.0777 25.2954 26.6076 25.0759 27.1601 25.0759C27.7126 25.0759 28.2426 25.2954 28.6333 25.6861L35.9989 33.0518L43.3646 25.6861C43.7553 25.2954 44.2852 25.0759 44.8378 25.0759C45.3903 25.0759 45.9202 25.2954 46.3109 25.6861C46.7016 26.0768 46.9211 26.6067 46.9211 27.1592C46.9211 27.7117 46.7016 28.2417 46.3109 28.6324Z" fill="#F7AA2F"/>
</svg>
