<svg width="50" height="50" viewBox="0 0 50 50" fill="none" xmlns="http://www.w3.org/2000/svg">
<path d="M37.4974 27.0788H27.0807V37.4954C27.0807 38.048 26.8612 38.5779 26.4705 38.9686C26.0798 39.3593 25.5499 39.5788 24.9974 39.5788C24.4449 39.5788 23.915 39.3593 23.5243 38.9686C23.1336 38.5779 22.9141 38.048 22.9141 37.4954V27.0788H12.4974C11.9449 27.0788 11.415 26.8593 11.0243 26.4686C10.6336 26.0779 10.4141 25.548 10.4141 24.9954C10.4141 24.4429 10.6336 23.913 11.0243 23.5223C11.415 23.1316 11.9449 22.9121 12.4974 22.9121H22.9141V12.4954C22.9141 11.9429 23.1336 11.413 23.5243 11.0223C23.915 10.6316 24.4449 10.4121 24.9974 10.4121C25.5499 10.4121 26.0798 10.6316 26.4705 11.0223C26.8612 11.413 27.0807 11.9429 27.0807 12.4954V22.9121H37.4974C38.0499 22.9121 38.5798 23.1316 38.9705 23.5223C39.3612 23.913 39.5807 24.4429 39.5807 24.9954C39.5807 25.548 39.3612 26.0779 38.9705 26.4686C38.5798 26.8593 38.0499 27.0788 37.4974 27.0788Z" fill="#F7AA2F"/>
</svg>
