<svg width="360" height="178" viewBox="0 0 360 178" fill="none" xmlns="http://www.w3.org/2000/svg">
<g clip-path="url(#clip0_71_13243)">
<path d="M169.554 38.627C171.984 39.3213 174.316 40.38 176.824 40.7359C178.6 40.9875 180.437 40.8747 182.177 41.3086C183.917 41.7339 185.657 42.9055 185.993 44.6412C186.417 46.8543 184.474 48.7809 182.592 50.074C177.01 53.9447 170.411 56.3747 163.618 57.0603C159.988 57.4335 155.845 57.1037 153.46 54.396C151.164 51.7837 151.384 47.6353 153.319 44.7541C156.525 39.9635 164.016 37.0475 169.554 38.627Z" fill="#FDE8CB"/>
<path d="M163.064 81.4988C161.306 83.9028 158.514 85.5517 155.538 85.9596C153.365 86.2633 151.148 85.9249 148.957 86.0464C145.388 86.246 142.005 87.6346 138.542 88.5024C133.348 89.8129 127.943 89.9778 122.59 90.134C120.081 90.2034 117.281 90.1774 115.47 88.4764C113.58 86.7146 113.474 83.8333 113.5 81.2731C113.527 78.0447 113.686 74.4865 115.92 72.1086C118.014 69.8868 121.318 69.3488 124.374 68.9409C131.697 67.9602 139.284 66.9882 146.36 69.0797C149.266 69.9389 152.013 71.2928 154.963 72.0131C156.739 72.447 158.567 72.6293 160.387 72.7074C161.58 72.7594 164.168 72.2387 164.963 73.2107C166.491 75.0766 164.203 79.9453 163.081 81.4814L163.064 81.4988Z" fill="#FDE8CB"/>
<path d="M220.161 66.7445C223.076 66.7097 226.177 66.7184 228.641 68.2372C230.752 69.539 232.068 71.7607 233.296 73.8956C234.577 76.1173 235.902 78.5907 235.381 81.0902C234.665 84.5009 230.894 86.332 227.475 87.2259C219.225 89.3782 210.542 89.0224 202.018 88.6579C199.403 88.5451 196.726 88.4149 194.315 87.4342C191.365 86.2279 188.989 83.7111 187.982 80.7257C187.134 78.2089 187.081 74.3035 188.653 71.9863C190.146 69.782 194.757 69.2005 197.221 68.6537C204.729 66.9701 212.494 66.8486 220.152 66.7531L220.161 66.7445Z" fill="#FDE8CB"/>
<path d="M233.425 105.287C236.614 106.537 239.087 109.756 238.814 113.124C238.602 115.667 236.967 117.888 236.526 120.396C236.331 121.49 236.367 122.627 236.013 123.677C235.033 126.55 231.632 127.73 228.664 128.537C226.164 129.214 223.373 129.865 221.067 128.693C219.372 127.834 218.303 126.15 217.393 124.501C215.432 120.943 213.824 116.968 214.354 112.959C214.849 109.201 217.923 105.339 221.915 104.853C223.541 104.653 225.228 104.966 226.88 104.818C229.159 104.619 231.243 104.428 233.443 105.287H233.425Z" fill="#FDE8CB"/>
<path d="M183.545 109.556C187.06 111.431 189.781 114.702 190.938 118.469C191.716 121.003 191.671 124.084 189.728 125.915C187.476 128.05 183.845 127.564 180.78 126.939C176.116 125.985 171.452 125.03 166.788 124.075C164.332 123.572 161.656 122.938 160.137 120.977C158.67 119.085 158.714 116.325 159.872 114.225C161.02 112.134 163.113 110.658 165.357 109.756C170.834 107.569 178.201 106.701 183.545 109.556Z" fill="#FDE8CB"/>
<path d="M212.809 41.2461C211.705 42.6433 210.857 44.6481 211.537 46.566C211.979 47.8071 212.951 48.7183 213.878 49.5688C216.475 51.9381 219.161 54.3681 222.252 55.4443C225.644 56.6332 229.124 56.0518 232.481 55.5397C241.005 54.2292 249.635 53.4048 258.327 53.0576C260.845 52.9622 263.627 52.7626 265.173 50.6623C266.533 48.8051 266.48 45.811 265.367 43.4504C264.254 41.0898 262.249 39.3107 260.112 38.2606C257.974 37.2105 255.695 36.7939 253.451 36.5249C247.118 35.7699 240.846 36.091 234.672 36.8373C231.668 37.2018 228.612 38.061 225.556 38.0784C223.772 38.0784 222.049 37.2105 220.282 37.1758C217.412 37.1151 214.603 38.9983 212.818 41.2461H212.809Z" fill="#FDE8CB"/>
<path d="M278.366 65.0687C281.537 65.7803 284.558 67.0995 287.782 67.5074C289.849 67.7764 291.969 67.6636 293.974 68.219C295.979 68.7658 297.94 70.2064 298.223 72.2285C298.426 73.6779 297.719 75.1359 296.721 76.2294C294.61 78.5292 291.386 79.4491 288.33 80.2215C279.046 82.5474 269.391 84.4133 259.94 82.9119C257.661 82.5474 255.373 81.9659 253.465 80.6989C249.649 78.1473 248.509 71.6471 253.5 69.7291C255.408 69.0001 257.493 68.8873 259.401 68.1062C262.227 66.952 264.762 65.5981 267.81 64.9906C271.281 64.2963 274.912 64.305 278.375 65.0861L278.366 65.0687Z" fill="#FDE8CB"/>
<path d="M290.412 98.8227C294.316 101.687 295.835 107.501 293.335 111.606C291.798 114.132 289.051 115.772 286.181 116.605C283.31 117.438 280.28 117.56 277.285 117.673C271.235 117.907 265.184 118.133 259.142 118.367C258.718 118.384 258.267 118.393 257.888 118.211C256.766 117.681 256.969 116.058 257.419 114.922C261.483 104.577 270.687 98.1631 281.631 96.7485C284.688 96.3493 287.929 96.9915 290.429 98.8227H290.412Z" fill="#FDE8CB"/>
<path d="M119.462 42.9925C119.188 44.3116 118.066 45.3183 117.695 46.6114C117.156 48.46 118.225 50.5342 117.518 52.3306C116.856 54.023 114.895 54.7867 113.128 55.3074C103.942 57.9717 94.1808 58.6921 84.6939 57.4076C83.4572 57.2427 82.1764 57.0258 81.1253 56.3575C80.0741 55.6893 79.2791 54.4743 79.4999 53.2679C79.8091 51.593 81.7083 50.7772 82.8301 49.4754C84.3406 47.7223 84.3494 45.1708 85.3917 43.114C86.6814 40.5711 89.4197 39.0611 92.1227 38.0543C97.4668 36.067 103.844 35.1817 109.489 36.3707C112.651 37.039 120.371 38.6619 119.47 42.9925H119.462Z" fill="#FDE8CB"/>
<path d="M320.976 45.1612C322.84 47.8429 322.761 51.5747 321.171 54.4126C320.049 56.4173 318.176 58.0663 315.924 58.6911C312.17 59.7239 308.292 57.8319 304.873 56.0008C302.524 54.7424 299.962 53.2236 299.229 50.6981C298.372 47.7214 300.598 44.571 303.442 43.2432C307.912 41.1603 317.814 40.6136 320.976 45.1699V45.1612Z" fill="#FDE8CB"/>
<path d="M249.124 140.817C249.91 142.414 250.343 144.358 249.495 145.92C248.691 147.404 246.96 148.133 245.325 148.602C240.017 150.12 234.24 149.981 229.01 148.211C228.339 147.985 227.659 147.716 227.146 147.239C226.634 146.762 226.316 146.015 226.537 145.347C226.74 144.748 227.306 144.349 227.844 144.002C232.005 141.277 236.289 137.58 240.803 135.506C244.31 133.9 247.64 137.614 249.124 140.817Z" fill="#FDE8CB"/>
<path d="M317.325 121.889C318.782 123.069 319.772 124.718 320.531 126.411C320.743 126.888 320.947 127.391 320.947 127.912C320.947 128.841 320.293 129.682 319.48 130.16C318.668 130.628 317.705 130.802 316.76 130.915C313.748 131.279 310.674 131.192 307.679 130.663C305.559 130.281 303.201 129.439 302.459 127.452C301.708 125.439 303.095 123.147 304.994 122.097C306.955 121.03 309.41 120.934 311.575 120.483C313.606 120.058 315.7 120.579 317.307 121.889H317.325Z" fill="#FDE8CB"/>
<path d="M199.549 163.885C201.537 163.182 203.506 162.34 205.591 162.045C207.676 161.75 209.99 162.079 211.554 163.468C213.143 164.874 213.691 167.078 213.974 169.161C214.248 171.157 214.301 173.327 213.214 175.037C212.004 176.929 209.601 177.805 207.331 177.892C205.061 177.979 202.817 177.397 200.574 177.007C188.675 174.95 176.256 178.213 164.454 175.67C162.529 175.254 160.594 174.663 159.066 173.44C157.538 172.225 156.505 170.255 156.876 168.354C157.361 165.898 159.905 164.397 162.317 163.607C168.712 161.524 174.48 162.808 180.566 165.03C186.608 167.235 193.64 165.967 199.549 163.876V163.885Z" fill="#FDE8CB"/>
<path d="M129.796 115.085C131.677 115.979 133.558 117.237 134.256 119.173C135.405 122.358 132.719 125.76 129.61 127.209C121.916 130.802 112.712 126.749 104.329 128.242C100.107 128.997 95.6638 131.132 91.7506 129.387C87.8021 127.626 86.5036 122.227 88.4293 118.409C90.355 114.59 94.6921 112.377 99.0027 111.9C104.303 111.31 109.17 113.688 114.328 112.907C119.575 112.108 125.008 112.802 129.804 115.085H129.796Z" fill="#FDE8CB"/>
<path d="M95.2208 81.3936C95.8745 83.6674 95.6448 86.028 94.6202 87.46C93.1538 89.5081 90.495 89.4908 88.0394 89.378C80.6283 89.0395 73.2171 88.701 65.7972 88.3539C64.6577 88.3018 63.3945 88.1803 62.3787 87.1042C60.9389 85.5767 60.8152 83.0513 60.9301 81.0378C61.0537 78.8682 61.3011 76.6117 62.4317 75.2926C64.2249 73.2011 67.4579 74.1817 70.2845 75.0062C75.081 76.4035 79.8509 77.1151 84.4707 77.1151C88.163 77.1151 93.1273 74.1731 95.212 81.385L95.2208 81.3936Z" fill="#FDE8CB"/>
<path d="M206.687 15.1938C204.302 15.2286 201.537 15.0897 200.123 13.2064C199.152 11.9046 199.152 10.0648 199.814 8.58942C200.477 7.11406 201.705 5.94245 203.03 4.98781C209.425 0.370791 218.17 0.101754 225.855 2.01972C227.975 2.54912 230.104 3.25209 231.8 4.59727C233.504 5.94245 234.715 8.04267 234.485 10.1776C233.911 15.4455 227.33 14.8727 223.567 14.9335C217.94 15.0203 212.305 15.1071 206.678 15.2025L206.687 15.1938Z" fill="#FDE8CB"/>
<path d="M288.97 8.71062C289.765 9.96034 290.595 11.2708 290.71 12.7375C290.939 15.6361 288.387 18.0228 285.772 19.3766C281.497 21.581 276.603 22.2839 271.798 22.7613C270.499 22.8914 269.157 22.9956 267.92 22.5877C266.683 22.1711 265.579 21.095 265.57 19.8105C265.57 18.6997 266.348 17.7277 266.507 16.6255C266.666 15.5146 266.171 14.4211 265.977 13.3103C265.314 9.5698 268.229 5.90743 271.807 4.46678C278.299 1.84585 285.216 2.86124 288.961 8.71062H288.97Z" fill="#FDE8CB"/>
<path d="M41.6284 91.8517C41.2309 92.572 40.7539 93.301 40.0119 93.6829C38.8812 94.2557 37.4326 93.8044 36.5404 92.9278C35.6482 92.0426 35.1978 90.8189 34.8709 89.6126C33.7579 85.525 32.7951 71.1359 40.9394 72.7761C47.8117 74.156 43.6954 88.1633 41.6372 91.8604L41.6284 91.8517Z" fill="#FDE8CB"/>
<path d="M69.1207 37.2468C68.9528 39.8244 68.2903 42.5842 66.2587 44.2244C64.0327 46.0209 60.8615 45.9515 57.9819 45.7952C55.8442 45.6737 53.7066 45.5609 51.5689 45.4394C50.0496 45.3526 48.4155 45.2225 47.2671 44.2505C45.3238 42.5928 45.8362 39.4772 47.0375 37.2468C49.1486 33.3241 54.7754 28.1343 59.2362 26.7544C65.9407 24.6889 69.474 31.8053 69.1207 37.2381V37.2468Z" fill="#FDE8CB"/>
<path d="M156.67 1.84632C160.892 2.0546 165.344 2.80964 168.506 5.56075C171.669 8.31187 172.835 13.6058 169.937 16.626C167.764 18.8824 164.266 19.1514 161.104 19.2816C155.716 19.4899 150.336 19.6982 144.948 19.9152C132.21 20.4098 119.34 20.9045 106.806 18.5873C105.154 18.2836 103.343 17.8149 102.442 16.4264C101.771 15.4023 101.771 14.0745 102.063 12.8855C102.955 9.28387 106.294 6.65426 109.898 5.55208C113.502 4.44989 117.362 4.60611 121.125 4.83175C126.672 5.16154 132.131 5.36115 137.484 3.92918C143.72 2.26289 150.213 1.54256 156.67 1.86367V1.84632Z" fill="#FDE8CB"/>
<path d="M148.447 137.753C149.463 138.187 150.381 138.986 150.673 140.045C151.159 141.789 149.843 143.542 148.359 144.618C144.295 147.595 134.243 148.159 133.413 141.442C132.618 135.02 144.949 136.261 148.447 137.753Z" fill="#FDE8CB"/>
<path d="M91.7949 145.156C92.7842 147.031 92.1747 149.418 90.8586 151.093C88.6237 153.957 84.8519 155.119 81.3275 156.118C79.4371 156.656 77.4143 157.185 75.5505 156.595C69.482 154.651 66.9292 145.113 73.3687 142.076C77.6086 140.071 89.4187 140.678 91.7949 145.156Z" fill="#FDE8CB"/>
<path d="M6.26261 48.4238C4.78746 48.9879 3.22397 50.8104 2.09331 51.8866C0.96265 52.9627 -0.450673 54.5335 0.149989 55.9742C0.609319 57.085 1.70465 57.8054 2.79114 58.3434C4.81396 59.3502 7.12827 59.9924 9.35426 59.5845C11.5891 59.1766 13.6737 57.5363 14.0801 55.3406C14.4246 53.4921 13.5236 51.5654 12.1367 50.2723C10.7499 48.9792 9.53976 48.2763 7.62294 48.2676" fill="#FDE8CB"/>
<path d="M49.1654 116.447C50.7907 117.48 52.3012 119.051 52.3542 120.952C52.4072 123.087 50.561 124.866 48.5382 125.638C45.0844 126.957 41.2154 126.098 37.6203 125.23C35.7123 124.77 33.7955 124.31 31.8875 123.85C31.3045 123.711 30.695 123.546 30.2975 123.113C29.5113 122.253 29.9883 120.891 30.6243 119.928C34.8378 113.549 42.8672 112.429 49.1742 116.447H49.1654Z" fill="#FDE8CB"/>
<path d="M358.002 100.158C360.202 102.518 360.776 106.432 358.753 108.94C357.631 110.329 355.909 111.127 354.151 111.518C352.119 111.978 350.017 111.952 347.941 111.926C345.547 111.9 343.118 111.865 340.848 111.119C335.195 109.261 332.942 101.928 338.834 99.0033C344.24 96.3216 353.55 95.3843 357.993 100.149L358.002 100.158Z" fill="#FDE8CB"/>
</g>
<defs>
<clipPath id="clip0_71_13243">
<rect width="360" height="177" fill="white" transform="translate(0 0.900391)"/>
</clipPath>
</defs>
</svg>
