<svg width="56" height="56" viewBox="0 0 56 56" fill="none" xmlns="http://www.w3.org/2000/svg">
<circle cx="28" cy="28" r="28" fill="#58A98A"/>
<mask id="path-2-inside-1_20_711" fill="white">
<path fill-rule="evenodd" clip-rule="evenodd" d="M18.034 23.1434C17.8955 22.6109 18.1922 22.0606 18.6966 21.9143C21.1476 21.2038 23.3023 19.6463 24.8163 17.4909C26.0513 15.7328 26.8019 13.6596 27 11.4993L27 9.99643C27 9.85637 27.0288 9.72304 27.0808 9.60202C27.2292 9.23665 27.5774 8.9852 27.9767 8.99641C27.9786 8.99646 27.9804 8.99652 27.9822 8.99659C27.9881 8.99648 27.9941 8.99643 28 8.99643C28.5523 8.99643 29 9.44414 29 9.99643L29 11.9741C29.2586 13.9623 29.9869 15.8613 31.1309 17.4899C32.645 19.6454 34.7997 21.2028 37.2507 21.9134C37.7551 22.0596 38.0517 22.6099 37.9132 23.1425C37.7747 23.675 37.2535 23.9882 36.7491 23.842C33.8896 23.013 31.3758 21.196 29.6094 18.6812C29.3935 18.3739 29.1903 18.0582 29 17.7352L29 45C29 45.5523 28.5523 46 28 46C27.4477 46 27 45.5523 27 45L27 17.6459C26.7947 18.0004 26.5739 18.3463 26.3379 18.6822C24.5715 21.197 22.0577 23.014 19.1982 23.843C18.6937 23.9892 18.1725 23.676 18.034 23.1434Z"/>
</mask>
<path fill-rule="evenodd" clip-rule="evenodd" d="M18.034 23.1434C17.8955 22.6109 18.1922 22.0606 18.6966 21.9143C21.1476 21.2038 23.3023 19.6463 24.8163 17.4909C26.0513 15.7328 26.8019 13.6596 27 11.4993L27 9.99643C27 9.85637 27.0288 9.72304 27.0808 9.60202C27.2292 9.23665 27.5774 8.9852 27.9767 8.99641C27.9786 8.99646 27.9804 8.99652 27.9822 8.99659C27.9881 8.99648 27.9941 8.99643 28 8.99643C28.5523 8.99643 29 9.44414 29 9.99643L29 11.9741C29.2586 13.9623 29.9869 15.8613 31.1309 17.4899C32.645 19.6454 34.7997 21.2028 37.2507 21.9134C37.7551 22.0596 38.0517 22.6099 37.9132 23.1425C37.7747 23.675 37.2535 23.9882 36.7491 23.842C33.8896 23.013 31.3758 21.196 29.6094 18.6812C29.3935 18.3739 29.1903 18.0582 29 17.7352L29 45C29 45.5523 28.5523 46 28 46C27.4477 46 27 45.5523 27 45L27 17.6459C26.7947 18.0004 26.5739 18.3463 26.3379 18.6822C24.5715 21.197 22.0577 23.014 19.1982 23.843C18.6937 23.9892 18.1725 23.676 18.034 23.1434Z" fill="white"/>
<path d="M18.6966 21.9143L18.4182 20.9539L18.4182 20.9539L18.6966 21.9143ZM24.8163 17.4909L23.998 16.9161L23.998 16.9161L24.8163 17.4909ZM27 11.4993L27.9958 11.5907L28 11.5451L28 11.4993L27 11.4993ZM27.0808 9.60202L27.9996 9.99676L28.0035 9.98762L28.0072 9.97841L27.0808 9.60202ZM27.9767 8.99641L27.9487 9.99602L27.9496 9.99604L27.9767 8.99641ZM27.9822 8.99659L27.9488 9.99602L27.9742 9.99688L27.9996 9.99643L27.9822 8.99659ZM29 11.9741L28 11.9741L28 12.0389L28.0084 12.1031L29 11.9741ZM31.1309 17.4899L31.9492 16.9151L31.9492 16.9151L31.1309 17.4899ZM37.2507 21.9134L37.5291 20.9529L37.5291 20.9529L37.2507 21.9134ZM36.7491 23.842L37.0275 22.8815L37.0275 22.8815L36.7491 23.842ZM29.6094 18.6812L28.7911 19.256L28.7911 19.256L29.6094 18.6812ZM29 17.7352L29.8616 17.2277L28 14.0673L28 17.7352L29 17.7352ZM29 45L28 45V45L29 45ZM27 45L26 45L26 45L27 45ZM27 17.6459L28 17.6459L28 13.9239L26.1346 17.1448L27 17.6459ZM26.3379 18.6822L27.1562 19.257L26.3379 18.6822ZM19.1982 23.843L18.9197 22.8825L18.9197 22.8825L19.1982 23.843ZM18.4182 20.9539C17.3536 21.2625 16.8022 22.3798 17.0662 23.3951L19.0018 22.8917C18.9981 22.8771 19.0008 22.8653 19.0045 22.8585C19.006 22.8557 19.0058 22.8574 19.0009 22.8614C18.9954 22.8661 18.9862 22.8716 18.975 22.8748L18.4182 20.9539ZM23.998 16.9161C22.6102 18.8918 20.6431 20.3089 18.4182 20.9539L18.975 22.8748C21.6521 22.0987 23.9943 20.4009 25.6346 18.0656L23.998 16.9161ZM26.0042 11.408C25.8216 13.3985 25.1303 15.3042 23.998 16.9161L25.6346 18.0656C26.9723 16.1614 27.7821 13.9208 27.9958 11.5907L26.0042 11.408ZM26 9.99643L26 11.4993L28 11.4993L28 9.99643L26 9.99643ZM26.162 9.20729C26.0574 9.4507 26 9.71816 26 9.99643L28 9.99643L27.9996 9.99676L26.162 9.20729ZM28.0048 7.99681C27.1489 7.97278 26.4444 8.5117 26.1543 9.22564L28.0072 9.97841C28.0093 9.97334 28.0102 9.97587 28.002 9.98151C27.9975 9.98461 27.9902 9.98859 27.9801 9.99168C27.9695 9.99488 27.9585 9.9963 27.9487 9.99602L28.0048 7.99681ZM28.0157 7.99715C28.0143 7.9971 28.0094 7.99693 28.0039 7.99678L27.9496 9.99604L27.9488 9.99602L28.0157 7.99715ZM28 7.99643C27.9881 7.99643 27.9763 7.99654 27.9648 7.99674L27.9996 9.99643L28 9.99643L28 7.99643ZM30 9.99643C30 8.89186 29.1046 7.99643 28 7.99643L28 9.99643L30 9.99643ZM30 11.9741L30 9.99643L28 9.99643L28 11.9741L30 11.9741ZM31.9492 16.9151C30.9004 15.422 30.2299 13.6767 29.9916 11.8451L28.0084 12.1031C28.2873 14.2479 29.0735 16.3005 30.3126 18.0647L31.9492 16.9151ZM37.5291 20.9529C35.3042 20.3079 33.337 18.8908 31.9492 16.9151L30.3126 18.0647C31.9529 20.3999 34.2951 22.0977 36.9722 22.8738L37.5291 20.9529ZM38.881 23.3941C39.1451 22.3788 38.5937 21.2615 37.5291 20.9529L36.9722 22.8738C36.961 22.8706 36.9519 22.8651 36.9463 22.8605C36.9414 22.8564 36.9413 22.8547 36.9428 22.8575C36.9465 22.8643 36.9492 22.8762 36.9454 22.8908L38.881 23.3941ZM36.4707 24.8024C37.5595 25.1181 38.6125 24.4268 38.881 23.3941L36.9454 22.8908C36.942 22.904 36.9394 22.898 36.9533 22.8896C36.9599 22.8857 36.9706 22.881 36.9853 22.879C37.001 22.8768 37.0161 22.8782 37.0275 22.8815L36.4707 24.8024ZM28.7911 19.256C30.6838 21.9505 33.3851 23.9079 36.4707 24.8024L37.0275 22.8815C34.3941 22.1181 32.0678 20.4414 30.4277 18.1065L28.7911 19.256ZM28.1384 18.2428C28.3421 18.5886 28.5598 18.9267 28.7911 19.256L30.4277 18.1065C30.2272 17.821 30.0384 17.5278 29.8616 17.2277L28.1384 18.2428ZM30 45L30 17.7352L28 17.7352L28 45L30 45ZM28 47C29.1046 47 30 46.1046 30 45L28 45L28 45L28 47ZM26 45C26 46.1046 26.8954 47 28 47L28 45L28 45L26 45ZM26 17.6459L26 45L28 45L28 17.6459L26 17.6459ZM27.1562 19.257C27.409 18.897 27.6455 18.5266 27.8653 18.1471L26.1346 17.1448C25.9438 17.4742 25.7387 17.7955 25.5196 18.1074L27.1562 19.257ZM19.4766 24.8034C22.5622 23.9089 25.2635 21.9515 27.1562 19.257L25.5196 18.1074C23.8794 20.4424 21.5531 22.1191 18.9197 22.8825L19.4766 24.8034ZM17.0662 23.3951C17.3348 24.4278 18.3878 25.1191 19.4766 24.8034L18.9197 22.8825C18.9311 22.8792 18.9463 22.8778 18.9619 22.88C18.9767 22.882 18.9874 22.8866 18.994 22.8906C19.0078 22.8989 19.0053 22.905 19.0018 22.8917L17.0662 23.3951Z" fill="white" mask="url(#path-2-inside-1_20_711)"/>
</svg>
