<svg width="26" height="30" viewBox="0 0 26 30" fill="none" xmlns="http://www.w3.org/2000/svg">
<g clip-path="url(#clip0_25_13349)">
<path d="M19.0673 6.17578L4.33398 14.9993L19.0673 23.8228" stroke="#58A98A" stroke-width="2" stroke-linejoin="round"/>
<path d="M25.0007 4.41176C25.0007 6.31302 23.4914 7.82353 21.6673 7.82353C19.8432 7.82353 18.334 6.31302 18.334 4.41176C18.334 2.51051 19.8432 1 21.6673 1C23.4914 1 25.0007 2.51051 25.0007 4.41176Z" fill="white" stroke="#58A98A" stroke-width="2"/>
<path d="M7.66667 14.9997C7.66667 16.9009 6.15745 18.4114 4.33333 18.4114C2.50922 18.4114 1 16.9009 1 14.9997C1 13.0984 2.50922 11.5879 4.33333 11.5879C6.15745 11.5879 7.66667 13.0984 7.66667 14.9997Z" fill="white" stroke="#58A98A" stroke-width="2"/>
<path d="M25.0007 25.5875C25.0007 27.4888 23.4914 28.9993 21.6673 28.9993C19.8432 28.9993 18.334 27.4888 18.334 25.5875C18.334 23.6863 19.8432 22.1758 21.6673 22.1758C23.4914 22.1758 25.0007 23.6863 25.0007 25.5875Z" fill="white" stroke="#58A98A" stroke-width="2"/>
</g>
<defs>
<clipPath id="clip0_25_13349">
<rect width="26" height="30" fill="white"/>
</clipPath>
</defs>
</svg>
