<svg width="24" height="24" viewBox="0 0 24 24" fill="none" xmlns="http://www.w3.org/2000/svg">
<path d="M7.96485 6.202C7.779 6.17495 7.58948 6.21236 7.42785 6.308H7.41385C7.03885 6.528 6.70085 6.805 6.41285 7.131C6.17285 7.408 6.04285 7.688 6.00885 7.958C5.98885 8.118 6.00285 8.28 6.04985 8.433L6.06785 8.443C6.33785 9.236 6.68985 9.999 7.11985 10.717C7.6743 11.7255 8.3566 12.6582 9.14985 13.492L9.17385 13.526L9.21185 13.554L9.23485 13.581L9.26285 13.605C10.0996 14.4006 11.0345 15.0862 12.0448 15.645C13.1998 16.274 13.9008 16.571 14.3218 16.695V16.701C14.4448 16.739 14.5568 16.756 14.6698 16.756C15.0284 16.7295 15.3678 16.5838 15.6338 16.342C15.9588 16.054 16.2338 15.715 16.4478 15.338V15.331C16.6488 14.951 16.5808 14.593 16.2908 14.35C15.7083 13.841 15.0785 13.389 14.4098 13C13.9618 12.757 13.5068 12.904 13.3228 13.15L12.9298 13.646C12.7278 13.892 12.3618 13.858 12.3618 13.858L12.3518 13.864C9.62085 13.167 8.89185 10.402 8.89185 10.402C8.89185 10.402 8.85785 10.026 9.11085 9.834L9.60285 9.438C9.83885 9.246 10.0028 8.792 9.74985 8.344C9.36345 7.67476 8.91229 7.04508 8.40285 6.464C8.29174 6.32725 8.13591 6.23411 7.96285 6.201L7.96485 6.202ZM12.5798 5C12.4472 5 12.3201 5.05268 12.2263 5.14645C12.1325 5.24021 12.0798 5.36739 12.0798 5.5C12.0798 5.63261 12.1325 5.75979 12.2263 5.85355C12.3201 5.94732 12.4472 6 12.5798 6C13.8438 6 14.8938 6.413 15.7248 7.205C16.1518 7.638 16.4848 8.151 16.7028 8.713C16.9218 9.276 17.0218 9.877 16.9958 10.479C16.9903 10.6116 17.0376 10.741 17.1274 10.8387C17.2173 10.9364 17.3422 10.9944 17.4748 11C17.6075 11.0056 17.7368 10.9582 17.8346 10.8684C17.9323 10.7786 17.9903 10.6536 17.9958 10.521C18.0269 9.78049 17.9039 9.04159 17.6348 8.351C17.3646 7.65714 16.9548 7.02612 16.4308 6.497L16.4208 6.487C15.3898 5.502 14.0858 5 12.5798 5Z" fill="white"/>
<path d="M12.5449 6.64162C12.4123 6.64162 12.2851 6.6943 12.1914 6.78807C12.0976 6.88184 12.0449 7.00902 12.0449 7.14162C12.0449 7.27423 12.0976 7.40141 12.1914 7.49518C12.2851 7.58895 12.4123 7.64162 12.5449 7.64162H12.5619C13.4739 7.70662 14.1379 8.01062 14.6029 8.50962C15.0799 9.02362 15.3269 9.66262 15.3079 10.4526C15.3049 10.5852 15.3546 10.7136 15.4462 10.8095C15.5378 10.9055 15.6638 10.9611 15.7964 10.9641C15.929 10.9672 16.0574 10.9174 16.1533 10.8258C16.2493 10.7342 16.3049 10.6082 16.3079 10.4756C16.3319 9.43862 15.9979 8.54362 15.3359 7.82962V7.82762C14.6589 7.10162 13.7299 6.71762 12.6119 6.64262L12.5949 6.64062L12.5449 6.64162Z" fill="white"/>
<path d="M12.5264 8.31834C12.4595 8.31244 12.392 8.32008 12.3281 8.3408C12.2642 8.36153 12.2052 8.39492 12.1545 8.43898C12.1038 8.48304 12.0625 8.53686 12.033 8.59724C12.0036 8.65762 11.9866 8.72331 11.9831 8.79039C11.9796 8.85747 11.9897 8.92457 12.0127 8.98768C12.0357 9.05079 12.0712 9.10862 12.117 9.15771C12.1629 9.2068 12.2182 9.24614 12.2795 9.2734C12.3409 9.30065 12.4072 9.31526 12.4744 9.31634C12.8924 9.33834 13.1594 9.46434 13.3274 9.63334C13.4964 9.80334 13.6224 10.0763 13.6454 10.5033C13.6466 10.5704 13.6614 10.6366 13.6887 10.6979C13.7161 10.7592 13.7555 10.8143 13.8046 10.86C13.8537 10.9058 13.9116 10.9411 13.9747 10.964C14.0377 10.9869 14.1048 10.9969 14.1718 10.9933C14.2388 10.9898 14.3044 10.9728 14.3647 10.9433C14.425 10.9139 14.4788 10.8726 14.5228 10.8219C14.5668 10.7712 14.6002 10.7122 14.6209 10.6484C14.6416 10.5845 14.6492 10.5172 14.6434 10.4503C14.6114 9.85034 14.4234 9.32034 14.0384 8.93034C13.6514 8.54034 13.1244 8.35034 12.5264 8.31834Z" fill="white"/>
<path fill-rule="evenodd" clip-rule="evenodd" d="M7.06681 2.38503C10.2489 1.67374 13.5487 1.67374 16.7308 2.38503L17.0698 2.46003C18 2.66799 18.8543 3.12976 19.5379 3.79406C20.2214 4.45835 20.7074 5.29915 20.9418 6.22303C21.7495 9.40593 21.7495 12.7401 20.9418 15.923C20.7074 16.8469 20.2214 17.6877 19.5379 18.352C18.8543 19.0163 18 19.4781 17.0698 19.686L16.7298 19.761C14.7368 20.2067 12.6918 20.3746 10.6528 20.26L7.99981 22.634C7.89979 22.7236 7.77757 22.7846 7.6459 22.8108C7.51423 22.837 7.37794 22.8274 7.25126 22.783C7.12457 22.7385 7.01214 22.6609 6.9257 22.5582C6.83925 22.4555 6.78196 22.3314 6.75981 22.199L6.32081 19.577C5.47899 19.3151 4.71842 18.8416 4.11178 18.2019C3.50514 17.5622 3.07271 16.7776 2.85581 15.923C2.04806 12.7401 2.04806 9.40592 2.85581 6.22303C3.09023 5.29915 3.57621 4.45835 4.25974 3.79406C4.94328 3.12976 5.79761 2.66799 6.72781 2.46003L7.06681 2.38503ZM16.4038 3.84803C13.4371 3.18484 10.3605 3.18484 7.39381 3.84803L7.05381 3.92403C6.39453 4.07169 5.78908 4.39919 5.30468 4.87017C4.82029 5.34114 4.47592 5.93716 4.30981 6.59203C3.56352 9.53276 3.56352 12.6133 4.30981 15.554C4.476 16.209 4.82052 16.8051 5.3051 17.2761C5.78968 17.7471 6.39535 18.0745 7.05481 18.222L7.14481 18.242C7.2904 18.2746 7.42298 18.3498 7.52558 18.4581C7.62819 18.5664 7.69616 18.7029 7.72081 18.85L8.01481 20.608L9.88681 18.933C9.96157 18.8659 10.049 18.8146 10.144 18.7819C10.239 18.7493 10.3396 18.7361 10.4398 18.743C12.4389 18.8848 14.4479 18.7349 16.4038 18.298L16.7428 18.222C17.4023 18.0745 18.0079 17.7471 18.4925 17.2761C18.9771 16.8051 19.3216 16.209 19.4878 15.554C20.2338 12.614 20.2338 9.53303 19.4878 6.59203C19.3216 5.93703 18.9771 5.34093 18.4925 4.86994C18.0079 4.39895 17.4023 4.07153 16.7428 3.92403L16.4038 3.84803Z" fill="white"/>
</svg>
