<svg width="23" height="22" viewBox="0 0 23 22" fill="none" xmlns="http://www.w3.org/2000/svg">
<path d="M15.3182 14.3333C15.3182 13.281 12.3266 12.4286 8.63636 12.4286M15.3182 14.3333C15.3182 15.3857 12.3266 16.2381 8.63636 16.2381C4.94609 16.2381 1.95455 15.3857 1.95455 14.3333M15.3182 14.3333V19.0352C15.3182 20.12 12.3266 21 8.63636 21C4.94609 21 1.95455 20.121 1.95455 19.0352V14.3333M15.3182 14.3333C18.9684 14.3333 22 13.3933 22 12.4286V2.90476M8.63636 12.4286C4.94609 12.4286 1.95455 13.281 1.95455 14.3333M8.63636 12.4286C4.41918 12.4286 1 11.4886 1 10.5238V5.7619M8.63636 3.85714C4.41918 3.85714 1 4.70952 1 5.7619M1 5.7619C1 6.81429 4.41918 7.66667 8.63636 7.66667C8.63636 8.63143 11.7415 9.57143 15.3917 9.57143C19.0409 9.57143 22 8.63143 22 7.66667M22 2.90476C22 1.85238 19.0409 1 15.3917 1C11.7415 1 8.78336 1.85238 8.78336 2.90476M22 2.90476C22 3.95714 19.0409 4.80952 15.3917 4.80952C11.7425 4.80952 8.78336 3.95714 8.78336 2.90476M8.78336 2.90476V12.5867" stroke="#2D2D2B" stroke-width="2"/>
</svg>
