<svg width="27" height="27" viewBox="0 0 27 27" fill="none" xmlns="http://www.w3.org/2000/svg">
<path d="M13.5 24.75C7.28663 24.75 2.25 19.7134 2.25 13.5C2.25 7.28663 7.28663 2.25 13.5 2.25C19.7134 2.25 24.75 7.28663 24.75 13.5C24.75 19.7134 19.7134 24.75 13.5 24.75ZM13.5 22.5C15.8869 22.5 18.1761 21.5518 19.864 19.864C21.5518 18.1761 22.5 15.8869 22.5 13.5C22.5 11.1131 21.5518 8.82387 19.864 7.13604C18.1761 5.44821 15.8869 4.5 13.5 4.5C11.1131 4.5 8.82387 5.44821 7.13604 7.13604C5.44821 8.82387 4.5 11.1131 4.5 13.5C4.5 15.8869 5.44821 18.1761 7.13604 19.864C8.82387 21.5518 11.1131 22.5 13.5 22.5ZM14.625 13.5H19.125V15.75H12.375V7.875H14.625V13.5Z" fill="#2D2D2B"/>
</svg>
