<svg width="28" height="18" viewBox="0 0 28 18" fill="none" xmlns="http://www.w3.org/2000/svg">
<path d="M10.8612 0.922399C10.9956 1.0568 11.088 1.2416 11.1384 1.4768C11.1888 1.6952 11.2056 1.9556 11.1888 2.258C9.6096 2.5772 8.3328 3.0896 7.3584 3.7952C6.384 4.5008 5.67 5.4332 5.2164 6.5924C4.7628 7.7516 4.536 9.188 4.536 10.9016C4.536 11.7416 4.6116 12.4556 4.7628 13.0436C4.9308 13.6316 5.1408 14.1104 5.3928 14.48C5.6616 14.8496 5.9472 15.1184 6.2496 15.2864C6.552 15.4544 6.8544 15.5384 7.1568 15.5384C7.6608 15.5384 8.0724 15.404 8.3916 15.1352C8.7276 14.8496 8.9712 14.4716 9.1224 14.0012C9.2904 13.514 9.3744 13.0016 9.3744 12.464C9.3744 11.5904 9.2232 10.8932 8.9208 10.3724C8.6352 9.8348 8.2656 9.44 7.812 9.188C7.3752 8.936 6.9216 8.81 6.4512 8.81C6.0648 8.81 5.6364 8.894 5.166 9.062C4.6956 9.2132 4.242 9.4484 3.8052 9.7676L3.654 8.6084C4.4436 8.054 5.1828 7.6592 5.8716 7.424C6.5604 7.172 7.266 7.046 7.9884 7.046C9.534 7.046 10.7436 7.4576 11.6172 8.2808C12.5076 9.0872 12.9528 10.2128 12.9528 11.6576C12.9528 12.632 12.7764 13.472 12.4236 14.1776C12.0876 14.8664 11.6256 15.4376 11.0376 15.8912C10.4664 16.3448 9.828 16.6808 9.1224 16.8992C8.4168 17.1176 7.7028 17.2268 6.9804 17.2268C5.7036 17.2268 4.6032 17.0084 3.6792 16.5716C2.772 16.1348 2.0748 15.4544 1.5876 14.5304C1.1172 13.6064 0.882 12.4136 0.882 10.952C0.882 9.4568 1.092 8.1548 1.512 7.046C1.9488 5.9372 2.5284 5.0048 3.2508 4.2488C3.9732 3.476 4.7712 2.8544 5.6448 2.384C6.5184 1.8968 7.4088 1.544 8.316 1.3256C9.2232 1.0904 10.0716 0.955999 10.8612 0.922399ZM21.0881 16.9496C21.1049 16.3112 21.1133 15.6476 21.1133 14.9588C21.1301 14.27 21.1385 13.5476 21.1385 12.7916C21.1385 12.0356 21.1385 11.2628 21.1385 10.4732C21.1385 9.7844 21.1385 9.1628 21.1385 8.6084C21.1385 8.0372 21.1385 7.4408 21.1385 6.8192C21.1385 6.1976 21.1301 5.4584 21.1133 4.6016C21.3821 4.484 21.6425 4.4084 21.8945 4.3748C22.1633 4.3244 22.4993 4.2992 22.9025 4.2992V16.6472C22.7345 16.7648 22.4657 16.8488 22.0961 16.8992C21.7265 16.9328 21.3905 16.9496 21.0881 16.9496ZM16.1741 11.4308C16.1741 11.1116 16.1909 10.8092 16.2245 10.5236C16.2581 10.2212 16.3337 9.9272 16.4513 9.6416H27.8669C27.8669 9.9776 27.8501 10.2884 27.8165 10.574C27.7997 10.8596 27.7157 11.1368 27.5645 11.4056C26.7413 11.3888 26.0273 11.3804 25.4225 11.3804C24.8345 11.3804 24.2717 11.3804 23.7341 11.3804C23.1965 11.3804 22.5917 11.3804 21.9197 11.3804C21.1973 11.3804 20.5169 11.3888 19.8785 11.4056C19.2401 11.4056 18.6185 11.4056 18.0137 11.4056C17.4089 11.4056 16.7957 11.414 16.1741 11.4308Z" fill="#2D2D2B"/>
</svg>
