<svg width="19" height="18" viewBox="0 0 19 18" fill="none" xmlns="http://www.w3.org/2000/svg">
<path fill-rule="evenodd" clip-rule="evenodd" d="M4.64368 0.896529C4.86505 1.08503 5.68152 2.0123 6.12674 2.66459C6.5616 3.32724 7.08676 3.99871 7.14888 4.31968C7.21101 4.64065 7.14142 5.16718 6.82045 5.50886C6.49948 5.85054 5.9198 6.12333 5.60918 6.42359C5.29856 6.72386 5.01019 7.31429 5.28975 7.83198C5.5693 8.36003 5.78506 8.85297 6.82045 9.92978C7.8662 11.0066 8.68685 11.7699 9.66012 12.3911C10.6334 13.0123 11.314 12.7949 11.78 12.3911C12.2459 11.9873 12.2736 11.6031 12.8108 11.3747C13.4642 11.0118 14.2442 11.048 15.0932 11.545C15.9423 12.042 17.2986 13.0463 17.9613 13.7504C18.6239 14.4545 18.442 15.0052 18.3237 15.3035C18.1779 15.6709 17.8604 16.2655 17.0796 16.9808C16.5424 17.4729 15.9009 17.9231 15.0933 17.9956C14.2857 18.0577 12.5786 17.4439 11.9688 17.0954C11.0666 16.5799 9.65845 15.9233 8.18819 14.743C6.71793 13.5626 5.3088 12.2793 3.69359 10.457C2.07837 8.63471 0.922844 6.62312 0.425855 5.17357C-0.180199 3.40701 -0.102331 2.56818 0.42572 1.64668C0.953771 0.735535 2.17154 0.134957 2.80313 0.0210632C3.45542 -0.103184 4.09676 0.339426 4.64368 0.896529Z" fill="#CBA8A3"/>
</svg>
