<svg width="24" height="24" viewBox="0 0 24 24" fill="none" xmlns="http://www.w3.org/2000/svg">
<path d="M3 5.36111C3 13.4459 9.55407 20 17.6389 20C18.0037 20 18.3653 19.9867 18.7234 19.9604C19.1343 19.9303 19.3398 19.9153 19.5268 19.8076C19.6817 19.7185 19.8286 19.5604 19.9063 19.3993C20 19.205 20 18.9782 20 18.5248V15.864C20 15.4826 20 15.2919 19.9372 15.1286C19.8818 14.9841 19.7918 14.8556 19.675 14.7542C19.5429 14.6393 19.3637 14.5742 19.0053 14.4438L15.9766 13.3425C15.5597 13.1909 15.3512 13.1151 15.1534 13.1279C14.979 13.1393 14.8111 13.1989 14.6686 13.2999C14.5068 13.4145 14.3927 13.6047 14.1644 13.9852L13.3889 15.2778C10.8862 14.1443 8.85735 12.1128 7.72222 9.61111L9.01479 8.83555C9.39531 8.60729 9.58552 8.49315 9.70008 8.33145C9.80113 8.18885 9.86073 8.02102 9.87206 7.8466C9.88491 7.64881 9.80907 7.44033 9.65748 7.02338L8.55617 3.9947C8.42583 3.63633 8.36067 3.45714 8.24582 3.32498C8.14439 3.20824 8.01585 3.1182 7.87144 3.06276C7.70806 3 7.51737 3 7.13601 3H4.47522C4.02179 3 3.79503 3 3.60067 3.09374C3.43964 3.17138 3.28154 3.31829 3.19238 3.47319C3.08472 3.66023 3.0697 3.8657 3.03957 4.27663C3.01332 4.6347 3 4.99635 3 5.36111Z" stroke="white" stroke-width="2" stroke-linecap="round" stroke-linejoin="round"/>
</svg>
