<svg width="22" height="22" viewBox="0 0 22 22" fill="none" xmlns="http://www.w3.org/2000/svg">
<path fill-rule="evenodd" clip-rule="evenodd" d="M10.5963 0C4.74414 0 0 4.74414 0 10.5963C0 16.4485 4.74414 21.1927 10.5963 21.1927C16.4485 21.1927 21.1927 16.4485 21.1927 10.5963C21.1927 4.74414 16.4485 0 10.5963 0ZM8.09718 15.4935L8.29176 12.4146L13.3045 7.3511C13.5226 7.13385 13.2574 7.01364 12.9658 7.23089L6.76889 11.593L4.10104 10.6595C3.52071 10.4571 3.50992 10.0105 4.2221 9.69949L14.6573 5.20507C15.1405 5.0027 15.563 5.32527 15.4057 6.15016L15.4052 6.15071L13.6299 15.509C13.4961 16.1696 13.1466 16.3333 12.6506 16.0223L9.946 13.7941L8.64075 15.1974C8.49615 15.359 8.37558 15.4935 8.09718 15.4935Z" fill="#CBA8A3"/>
</svg>
