<svg width="22" height="23" viewBox="0 0 22 23" fill="none" xmlns="http://www.w3.org/2000/svg">
<path fill-rule="evenodd" clip-rule="evenodd" d="M0.808594 10.5963C0.808594 4.74414 5.55273 0 11.4049 0C17.2571 0 22.0013 4.74414 22.0013 10.5963C22.0013 16.4485 17.2571 21.1927 11.4049 21.1927C11.0905 21.1927 10.7793 21.179 10.4719 21.1521C10.3511 21.1416 10.2316 21.178 10.1301 21.2443L8.53297 22.288C7.05468 23.2541 5.14122 21.9701 5.4749 20.236L5.49418 20.1357C5.57091 19.7369 5.39609 19.3348 5.07069 19.0918C2.48356 17.1597 0.808594 14.0736 0.808594 10.5963ZM9.50997 6.99661C9.24424 6.60728 8.75692 6.05383 8.62479 5.94132C8.29836 5.6088 7.91557 5.34463 7.52624 5.41879C7.14926 5.48676 6.42243 5.84523 6.10725 6.38905C5.79208 6.93906 5.7456 7.43973 6.10733 8.49412C6.40397 9.3593 7.09366 10.5599 8.05772 11.6476C9.02178 12.7353 9.86283 13.5012 10.7404 14.2057C11.4314 14.7605 12.0994 15.1214 12.6151 15.4C12.7543 15.4752 12.8824 15.5444 12.9969 15.6098C13.3608 15.8178 14.3798 16.1842 14.8618 16.1471C15.3438 16.1039 15.7267 15.8351 16.0473 15.5414C16.5133 15.1145 16.7028 14.7596 16.7899 14.5403C16.8605 14.3622 16.9691 14.0335 16.5736 13.6133C16.1781 13.1931 15.3685 12.5936 14.8617 12.297C14.355 12.0003 13.8894 11.9787 13.4995 12.1954C13.3086 12.2765 13.2255 12.3905 13.1309 12.5204C13.0665 12.6087 12.9968 12.7044 12.8842 12.802C12.6061 13.043 12.1998 13.1728 11.6189 12.802C11.038 12.4312 10.5482 11.9756 9.92402 11.3329C9.3562 10.7424 9.20139 10.4461 9.05057 10.1574C9.03724 10.1319 9.02395 10.1064 9.01041 10.0808C8.84355 9.77183 9.01567 9.41943 9.20106 9.24021C9.28657 9.15755 9.40623 9.07839 9.52916 8.99707C9.67276 8.90206 9.8208 8.80412 9.92402 8.69424C10.1156 8.49031 10.1571 8.17604 10.1201 7.98447C10.0932 7.84579 9.92156 7.5975 9.73036 7.32094C9.65742 7.21544 9.58164 7.10582 9.50997 6.99661Z" fill="#CBA8A3"/>
</svg>
